<svg xmlns="http://www.w3.org/2000/svg" xmlns:xlink="http://www.w3.org/1999/xlink" width="312" height="270.069" viewBox="0 0 312 270.069"><defs><style>.a{fill:url(#a);}.b{fill:#484c89;}.c{fill:#031020;}.d{fill:url(#b);}.e{fill:url(#c);}.f{clip-path:url(#d);}.g{fill:url(#e);}.h{clip-path:url(#f);}.i{fill:#777bb3;}.j{fill:#fff;}.k{fill:#d6d6d6;opacity:0.25;}</style><linearGradient id="a" x1="0.5" x2="0.5" y2="1" gradientUnits="objectBoundingBox"><stop offset="0" stop-color="#777bb3"/><stop offset="1" stop-color="#484c89"/></linearGradient><linearGradient id="b" x1="0.5" x2="0.5" y2="1" gradientUnits="objectBoundingBox"><stop offset="0" stop-color="#031020"/><stop offset="1" stop-color="#042e60"/></linearGradient><linearGradient id="c" x1="0.5" y1="1.13" x2="0.471" y2="-0.174" gradientUnits="objectBoundingBox"><stop offset="0" stop-color="#e7e8f3"/><stop offset="1" stop-color="#c0c4f3"/></linearGradient><clipPath id="d"><path d="M14.4-340.757c0,24.047,37.06,43.542,82.773,43.542h0c45.714,0,82.774-19.495,82.774-43.542h0c0-24.047-37.06-43.542-82.774-43.542h0C51.46-384.3,14.4-364.8,14.4-340.757" transform="translate(-14.4 384.299)"/></clipPath><radialGradient id="e" cx="0.628" cy="0.8" r="1.248" gradientTransform="translate(-0.009 0.511) scale(0.526 1)" gradientUnits="objectBoundingBox"><stop offset="0" stop-color="#aeb2d5"/><stop offset="0.3" stop-color="#aeb2d5"/><stop offset="0.75" stop-color="#484c89"/><stop offset="1" stop-color="#484c89"/></radialGradient><clipPath id="f"><path d="M0-405H172.444v97H0Z" transform="translate(0 405)"/></clipPath></defs><g transform="translate(-293 -196)"><g transform="translate(583 -234)"><path class="a" d="M189.862,0a12,12,0,0,1,10.692,6.553L260.179,123.6a12,12,0,0,1,0,10.894L200.554,251.532a12,12,0,0,1-10.692,6.553H73.093A12,12,0,0,1,62.4,251.532L2.775,134.49a12,12,0,0,1,0-10.894L62.4,6.553A12,12,0,0,1,73.093,0Z" transform="translate(-262.632 692.954) rotate(-90)"/><path class="b" d="M-264.515,1591.469l9.836,21.211-14.8,7.569-1.368-27.326Z" transform="translate(172.637 -945.985)"/><path class="b" d="M-261.008,1591.469l-9.836,21.211,14.8,7.569,1.368-27.326Z" transform="translate(83.689 -947.037)"/><path class="c" d="M-269.333,1600.768l80.851-26.684-80.851,23.491Z" transform="translate(173.193 -952.39)"/><path class="c" d="M-188.508,1600.827l-80.757-26.906,80.757,23.712Z" transform="translate(15.85 -952.45)"/><path class="d" d="M149.627,232.92l-26.695-14.035a12,12,0,0,1-6.416-10.621v-26.19a12.015,12.015,0,0,1,.094-1.5L8.456,147.134A12,12,0,0,1,0,135.669V56.9A12,12,0,0,1,8.456,45.431L152.456.9a12,12,0,0,1,7.089,0l144,44.527A12,12,0,0,1,312,56.9v78.773a12,12,0,0,1-8.455,11.465L193.861,181.049q.043.508.044,1.025v26.19a12,12,0,0,1-6.415,10.621L160.795,232.92a12,12,0,0,1-11.168,0Z" transform="translate(-290 465.771)"/><path class="e" d="M27.368,113.4h0L8.455,107.551A12,12,0,0,1,0,96.087V17.312A12,12,0,0,1,8.455,5.848L27.368,0Zm258.085-.254V.254l18.093,5.594A12,12,0,0,1,312,17.312V96.087a12,12,0,0,1-8.455,11.464l-18.091,5.594Z" transform="translate(-290 505.263)"/></g><g transform="translate(363 687)"><g transform="translate(3.449 -400.042)"><g class="f" transform="translate(0 0)"><path class="g" d="M14.4-340.757c0,24.047,37.06,43.542,82.773,43.542h0c45.714,0,82.774-19.495,82.774-43.542h0c0-24.047-37.06-43.542-82.774-43.542h0C51.46-384.3,14.4-364.8,14.4-340.757" transform="translate(-14.4 384.299)"/></g></g><g transform="translate(0 -405)"><g class="h"><g transform="translate(6.682 8.191)"><path class="i" d="M-252.56-255.984c43.928,0,79.54-18.047,79.54-40.309S-208.632-336.6-252.56-336.6s-79.54,18.047-79.54,40.309,35.612,40.309,79.54,40.309" transform="translate(332.1 336.603)"/></g></g></g><g transform="translate(0 -405)"><g class="h"><g transform="translate(28.643 28.35)"><path d="M-62.8-79.852c3.612,0,6.309-.666,8.015-1.979,1.688-1.3,2.854-3.551,3.465-6.692.57-2.936.353-4.986-.645-6.092-1.02-1.13-3.225-1.7-6.554-1.7h-5.772l-3.2,16.466ZM-81.68-59.569a.9.9,0,0,1-.693-.327.9.9,0,0,1-.189-.742l8.481-43.635A.9.9,0,0,1-73.2-105H-54.92c5.745,0,10.02,1.56,12.708,4.637,2.7,3.093,3.536,7.416,2.48,12.85a20.51,20.51,0,0,1-2.2,6.11,20.458,20.458,0,0,1-4.045,5.069,17.745,17.745,0,0,1-6.657,3.989,30.155,30.155,0,0,1-9.146,1.176h-7.4L-71.293-60.3a.9.9,0,0,1-.881.727Z" transform="translate(82.578 105)"/></g><g transform="translate(27.744 27.451)"><path class="j" d="M-63.265-33.272h5.032c4.018,0,5.414.882,5.888,1.407.787.872.935,2.712.43,5.319-.568,2.919-1.621,4.989-3.131,6.151C-56.592-19.2-59.1-18.6-62.513-18.6h-3.6Zm8.631-10.478H-72.912A1.8,1.8,0,0,0-74.675-42.3L-83.156,1.339a1.8,1.8,0,0,0,.377,1.485,1.8,1.8,0,0,0,1.386.654h9.505a1.8,1.8,0,0,0,1.763-1.454l1.972-10.148h6.661a31.032,31.032,0,0,0,9.424-1.221,18.642,18.642,0,0,0,6.992-4.187,21.365,21.365,0,0,0,4.215-5.286,21.406,21.406,0,0,0,2.3-6.377c1.112-5.719.209-10.3-2.685-13.612-2.866-3.281-7.369-4.944-13.384-4.944M-68.3-16.806h5.782q5.749,0,8.563-2.166t3.8-7.232q.943-4.864-.86-6.865t-7.221-2h-6.513L-68.3-16.806m13.662-25.148q8.248,0,12.032,4.329t2.274,12.088a19.537,19.537,0,0,1-2.1,5.844A19.487,19.487,0,0,1-46.3-14.848a16.789,16.789,0,0,1-6.327,3.8A29.138,29.138,0,0,1-61.491-9.92h-8.142l-2.255,11.6h-9.505l8.481-43.635h18.279" transform="translate(83.189 43.75)"/></g><g transform="translate(69.107 16.748)"><path d="M-76.763-144.256a.9.9,0,0,1-.693-.327.9.9,0,0,1-.189-.742l3.752-19.307c.357-1.836.269-3.154-.248-3.711-.316-.34-1.266-.911-4.074-.911h-6.8l-4.717,24.272a.9.9,0,0,1-.882.727h-9.431a.9.9,0,0,1-.693-.327.9.9,0,0,1-.189-.742l8.481-43.635a.9.9,0,0,1,.882-.727h9.431a.9.9,0,0,1,.693.327.9.9,0,0,1,.189.743l-2.047,10.532h7.312c5.57,0,9.347.982,11.547,3,2.242,2.061,2.942,5.356,2.08,9.8L-66.3-144.983a.9.9,0,0,1-.882.727Z" transform="translate(100.938 189.688)"/></g><g transform="translate(68.209 15.85)"><path class="j" d="M-62.578,0h-9.431a1.8,1.8,0,0,0-1.763,1.454l-8.481,43.635a1.8,1.8,0,0,0,.377,1.485,1.8,1.8,0,0,0,1.386.654h9.431A1.8,1.8,0,0,0-69.3,45.774l4.575-23.545h6.056c2.8,0,3.391.6,3.415.625.17.183.394,1.03.025,2.928l-3.752,19.307a1.8,1.8,0,0,0,.377,1.485,1.8,1.8,0,0,0,1.386.654h9.58a1.8,1.8,0,0,0,1.763-1.453l3.946-20.306c.926-4.766.134-8.342-2.353-10.628-2.374-2.18-6.349-3.239-12.155-3.239h-6.222l1.839-9.462A1.8,1.8,0,0,0-61.191.654,1.8,1.8,0,0,0-62.578,0m0,1.8-2.255,11.6h8.4q7.929,0,10.939,2.766t1.806,8.963l-3.946,20.305h-9.58l3.752-19.307q.64-3.294-.471-4.493t-4.732-1.2H-66.2l-4.858,25h-9.431L-72.008,1.8h9.431" transform="translate(82.285)"/></g><g transform="translate(102.834 28.35)"><path d="M-62.8-79.852c3.612,0,6.309-.666,8.015-1.979,1.688-1.3,2.854-3.551,3.465-6.692.57-2.936.353-4.986-.645-6.092-1.02-1.13-3.225-1.7-6.554-1.7h-5.772l-3.2,16.466Zm-18.88,20.283a.9.9,0,0,1-.693-.327.9.9,0,0,1-.189-.742l8.481-43.635A.9.9,0,0,1-73.2-105H-54.92c5.745,0,10.02,1.56,12.708,4.637,2.7,3.093,3.536,7.416,2.48,12.85a20.527,20.527,0,0,1-2.2,6.11,20.458,20.458,0,0,1-4.045,5.069,17.745,17.745,0,0,1-6.657,3.989,30.155,30.155,0,0,1-9.146,1.176h-7.4L-71.292-60.3a.9.9,0,0,1-.882.727Z" transform="translate(82.578 105)"/></g><g transform="translate(101.936 27.451)"><path class="j" d="M-63.264-33.272h5.032c4.018,0,5.414.882,5.888,1.407.787.872.936,2.712.43,5.319-.568,2.919-1.622,4.989-3.131,6.151C-56.591-19.2-59.1-18.6-62.512-18.6h-3.6Zm8.632-10.478H-72.911A1.8,1.8,0,0,0-74.674-42.3L-83.155,1.339a1.8,1.8,0,0,0,.377,1.485,1.8,1.8,0,0,0,1.386.654h9.505a1.8,1.8,0,0,0,1.763-1.454l1.972-10.148h6.661a31.032,31.032,0,0,0,9.424-1.221,18.642,18.642,0,0,0,6.992-4.187,21.355,21.355,0,0,0,4.215-5.286,21.406,21.406,0,0,0,2.3-6.377c1.112-5.72.209-10.3-2.685-13.612-2.866-3.28-7.369-4.944-13.384-4.944M-68.294-16.806h5.782q5.749,0,8.563-2.166t3.8-7.232q.944-4.864-.86-6.865t-7.221-2h-6.513l-3.549,18.262m13.661-25.148q8.248,0,12.032,4.329t2.274,12.088a19.537,19.537,0,0,1-2.1,5.844A19.487,19.487,0,0,1-46.3-14.848a16.789,16.789,0,0,1-6.327,3.8A29.138,29.138,0,0,1-61.49-9.92h-8.142l-2.254,11.6h-9.505l8.481-43.635h18.279" transform="translate(83.188 43.75)"/></g></g></g></g><path class="k" d="M5.057-4.892A1.745,1.745,0,0,0,3.083-6.656,1.75,1.75,0,0,0,1.092-4.892c0,1.133.809,1.748,1.991,1.748A1.733,1.733,0,0,0,5.057-4.892Zm11.3-2.541c0-2.428-1.457-4.305-3.8-4.305a3.509,3.509,0,0,0-2.59.971l.032-.809H6.563V-.49H10.2V-2.756a11.569,11.569,0,0,0-.049-1.376,2.715,2.715,0,0,0,2.4,1C14.9-3.128,16.354-5.006,16.354-7.433Zm-3.69-.049a1.281,1.281,0,0,1-1.295,1.408,1.29,1.29,0,0,1-1.295-1.408,1.3,1.3,0,0,1,1.295-1.424A1.287,1.287,0,0,1,12.664-7.482Zm13.6,4.16V-8.178c0-2.023-.647-3.561-3.075-3.561a2.519,2.519,0,0,0-2.3,1.214s.032-1.052.032-1.538V-14.49H17.277V-3.322h3.642V-7.369c0-.809.081-1.424.858-1.424.761,0,.842.615.842,1.424v4.046ZM37.233-7.433c0-2.428-1.457-4.305-3.8-4.305a3.509,3.509,0,0,0-2.59.971l.032-.809H27.441V-.49h3.642V-2.756a11.569,11.569,0,0,0-.049-1.376,2.715,2.715,0,0,0,2.4,1C35.776-3.128,37.233-5.006,37.233-7.433Zm-3.69-.049a1.281,1.281,0,0,1-1.295,1.408,1.29,1.29,0,0,1-1.295-1.408,1.3,1.3,0,0,1,1.295-1.424A1.287,1.287,0,0,1,33.543-7.482Z" transform="translate(429.908 444)"/></g></svg>